<svg id="visual" viewBox="0 0 960 540" width="960" height="540" xmlns="http://www.w3.org/2000/svg" xmlns:xlink="http://www.w3.org/1999/xlink" version="1.1"><rect x="0" y="0" width="960" height="540" fill="#FFFFFF"></rect><path d="M0 359L22.8 342C45.7 325 91.3 291 137 267.7C182.7 244.3 228.3 231.7 274 255C319.7 278.3 365.3 337.7 411.2 343.7C457 349.7 503 302.3 548.8 273.8C594.7 245.3 640.3 235.7 686 260.3C731.7 285 777.3 344 823 358C868.7 372 914.3 341 937.2 325.5L960 310L960 541L937.2 541C914.3 541 868.7 541 823 541C777.3 541 731.7 541 686 541C640.3 541 594.7 541 548.8 541C503 541 457 541 411.2 541C365.3 541 319.7 541 274 541C228.3 541 182.7 541 137 541C91.3 541 45.7 541 22.8 541L0 541Z" fill="#0066FF" stroke-linecap="round" stroke-linejoin="miter"></path></svg>