<svg id="visual" viewBox="0 0 960 540" width="960" height="540" xmlns="http://www.w3.org/2000/svg" xmlns:xlink="http://www.w3.org/1999/xlink" version="1.1"><rect x="0" y="0" width="960" height="540" fill="#FFFFFF"></rect><path d="M0 459L22.8 462.7C45.7 466.3 91.3 473.7 137 465.7C182.7 457.7 228.3 434.3 274 433C319.7 431.7 365.3 452.3 411.2 454.8C457 457.3 503 441.7 548.8 442C594.7 442.3 640.3 458.7 686 463C731.7 467.3 777.3 459.7 823 452.8C868.7 446 914.3 440 937.2 437L960 434L960 541L937.2 541C914.3 541 868.7 541 823 541C777.3 541 731.7 541 686 541C640.3 541 594.7 541 548.8 541C503 541 457 541 411.2 541C365.3 541 319.7 541 274 541C228.3 541 182.7 541 137 541C91.3 541 45.7 541 22.8 541L0 541Z" fill="#0066FF" stroke-linecap="round" stroke-linejoin="miter"></path></svg>